<svg xmlns="http://www.w3.org/2000/svg" width="204.214" height="39.403" viewBox="0 0 204.214 39.403">
  <g id="jaspervanderkooi" transform="translate(804.859 -139.163)">
    <path id="Path_365" data-name="Path 365" d="M-760.063,155.661c-3.945,4.033-6.006,9.391-10.157,13.248-.648-2.414.5-4.416,1.443-6.359a48.784,48.784,0,0,1,3.621-5.623c-2.8.029-5.77,2.65-8.125-.795-1,.412-2.031.942-3.15,1.3-.765.236-1.914.559-2.355.177-1.266-1.06-2.09-.294-3.121.265-1.914,1-2.532.707-3.3-1.443a15.242,15.242,0,0,0-5.329,5.682,89.539,89.539,0,0,1-7.3,11.246,34.689,34.689,0,0,1-4.239,4.593,2.275,2.275,0,0,1-1.884.559,2.13,2.13,0,0,1-.883-1.825,18.347,18.347,0,0,1,1.737-5c1.973-3.5,4.917-6.153,8.008-8.655,1.59-1.3,3.209-2.532,4.71-3.886a4.163,4.163,0,0,0,1-1.884,69.024,69.024,0,0,0,2.62-8.508,11.3,11.3,0,0,0-.383-5.329c-.942-3.15-3.651-4.239-7.242-3.18a7.957,7.957,0,0,0-2.385,1.089c-2.179,1.531-4.593,2.679-5.917,5.27-2.3,4.534-.648,8.508,4.269,9.862,2.443.677,4.917,1.3,7.478.5a.887.887,0,0,1,.765.442.808.808,0,0,1-.353.765,5.98,5.98,0,0,1-2.12.471,20.289,20.289,0,0,1-9.3-2.708c-2.208-1.3-3.445-6.065-2.149-8.538a14.321,14.321,0,0,1,12.424-8.214c3.091-.177,5.27,1.825,5.741,5.093a22.915,22.915,0,0,1-1.855,12.07c.324-.029.589.059.736-.059,1.56-1.06,3.091-2.208,4.681-3.238,1.649-1.089,3.356-2.09,5.064-3.062.677-.383,1.472-.559,1.825.442.353.972-.206,1.443-1.148,1.737v-1c-3.356.265-6.977,3.327-7.213,6.094,3.3-.029,4.534-2.915,6.477-4.71,1.06.972.942,1.325-1.354,3.916a7.7,7.7,0,0,0,5.152-1.354c2.3-1.413,4.445-3,6.683-4.475a3.807,3.807,0,0,1,1.178-.236,4.688,4.688,0,0,1-.147,1.325c-.736,1.413-1.59,2.8-2.5,4.387a8.77,8.77,0,0,0,6.212-2.267,52.493,52.493,0,0,1,5.859-4.3c1.3-.854,2.5-.059,2.561,1.531.029.972,0,1.943,0,3.3,1.855-1.03,3.533-1.972,5.24-2.856a27.015,27.015,0,0,1,2.944-1.413c.736-.265,1.207.177.913.942-.766,2.031-1.178,4.357-3.71,5.181.029.177.059.324.088.5a8.084,8.084,0,0,0,2.061.029c2.414-.53,3.974-2.237,5.417-4.092.677-.883,1.5-1.649,2.355-2.561,1.354,2.326,1.649,4.357-.707,6.271,2.767,1.03,4.3-1.06,6.33-1.943-.029.412.029.854-.118.942-1.708,1.03-3.15,2.708-5.446,2.5-1.973-.177-2.385-.972-1.325-2.65,1.06-1.649,1.06-1.649.824-3.062a8.384,8.384,0,0,0-1.443,1.472,11.643,11.643,0,0,1-4.769,4,4.359,4.359,0,0,1-4.858-.471c-.677-.53-.736-1.825-1.089-2.856-1.207.589-2.679,1.3-4.122,2.09C-757.708,157.692-757.914,157.692-760.063,155.661Zm-31.354,5.388a10.949,10.949,0,0,0-.942.677c-2.5,2.326-5,4.593-7.419,6.977a13.979,13.979,0,0,0-3.857,5.859,12.956,12.956,0,0,0-.177,2.856c.206.059.383.088.589.147A48.666,48.666,0,0,0-791.417,161.048Zm31.089-7.331a3.112,3.112,0,0,1-.353-.294c-3.8,3.592-7.183,7.448-8.6,12.6a4.312,4.312,0,0,0,.383.265C-766.04,162.108-763.184,157.9-760.328,153.717Zm5.829-2.237c-.118-.265-.265-1-.648-1.178a1.784,1.784,0,0,0-1.5.442,16.823,16.823,0,0,0-2.179,2.826c-.736,1.148-.118,2.12,1.266,2.09C-755.5,155.6-754.911,154.542-754.5,151.48Zm-17.546,4.18c1.972,1.119,3.916-.589,4.18-3.444C-769.249,153.364-770.573,154.453-772.045,155.661Zm26.319-4.3c-2.061.206-3.327,1.737-3.592,4.357C-747.434,154.748-746.668,153.1-745.726,151.362Z" transform="translate(0)"/>
    <path id="Path_366" data-name="Path 366" d="M-368.131,161.244c2.591,1,4.122-.854,6.094-2-.029.412.059.854-.088.942-1.649,1.178-3.121,2.767-5.417,2.473-1.766-.206-2.12-1.089-1.178-2.591a15.834,15.834,0,0,0,1.089-2.62c-.177-.118-.383-.206-.559-.324-1.325,1.384-2.591,2.885-4.033,4.151a5.494,5.494,0,0,1-5.3,1.384,17.062,17.062,0,0,1-3.15-1.8c-1.089.471-2.65,1.148-4.21,1.8a4.83,4.83,0,0,1-1.266.383c-2.414.471-2.826-.029-2-2.561-1.148.677-2.179,1.3-3.238,1.855a8.391,8.391,0,0,1-2.12.913c-.589.118-1.678.088-1.825-.206a2.682,2.682,0,0,1-.059-2.179c1.59-2.708,3.768-4.71,7.1-5a3.209,3.209,0,0,1,1.59.059c1.3.53,1.973-.059,2.738-1.03,1.855-2.443,3.768-4.828,5.711-7.213a10.445,10.445,0,0,1,1.737-1.472c.118.059.265.088.383.147a4.857,4.857,0,0,1-.412,1.619c-2.149,3.18-3.916,6.595-7.125,8.979-1.384,1.03-2.267,2.708-3.356,4.122-.177.236-.147.618-.294,1.3,3.209-1.3,6.565-1.443,8.508-4.74.706-1.207,2.473-1.855,3.827-2.62.824-.442,1.207.029,1,.913-.5,2.061-1.207,4.033-3.474,5.329.559.236,1.03.648,1.325.53,1.678-.53,3.474-.765,4.651-2.444a51.05,51.05,0,0,1,3.768-4.239C-365.982,157.093-366.071,158.506-368.131,161.244Zm-26.732.677a3.729,3.729,0,0,1,.324.383,5.036,5.036,0,0,0,1.384-.236c2.09-1.207,4.18-2.473,6.212-3.768.324-.206.471-.677.677-1a4.382,4.382,0,0,0-1.266-.559,6.589,6.589,0,0,0-5.476,2.532A28.366,28.366,0,0,0-394.863,161.921Zm19.99-5.505c-1.855-.088-3.592,1.914-3.709,4.063C-376.227,160.1-376.227,157.77-374.873,156.416Zm-7.183-2.5a4.316,4.316,0,0,0,.383.265c.824-1.148,1.649-2.326,2.444-3.474-.088-.059-.147-.118-.236-.177C-380.32,151.676-381.173,152.795-382.057,153.913Z" transform="translate(-288.774 -4.965)"/>
    <path id="Path_367" data-name="Path 367" d="M-524.993,181.086c-1.443-.559-2.738-1.06-3.945-1.531-1.325,1.03-2.709,2.237-4.21,3.209a5.634,5.634,0,0,1-2.178.412,4.989,4.989,0,0,1-.206-1.943,14.862,14.862,0,0,1,2.679-5.152c.147.059.295.147.442.206-.707,1.825-1.413,3.68-2.149,5.505a8.249,8.249,0,0,0,5.329-4.475c.177-.383.618-.618.913-.942a7.592,7.592,0,0,0,.412,1.148c.324.618.559,1.472,1.06,1.708a3.254,3.254,0,0,0,3.562-.471c1.384-1.06,2.767-2.149,4.21-3.121a6.315,6.315,0,0,1,2.326-.854c.353-.059,1.119.324,1.148.559a5.169,5.169,0,0,1-.412,1.708c-.118-.147-.236-.324-.353-.471a4.349,4.349,0,0,0-1.59-.236c-3.121.736-4.71,3.121-6.33,5.682a5.041,5.041,0,0,0,4.593-1.855,13.809,13.809,0,0,1,1.649-2.031c.236-.236.736-.236,1.119-.353.029.412.206.942.029,1.207a27.641,27.641,0,0,1-1.884,2.443,3.909,3.909,0,0,0,1.148.118,10.61,10.61,0,0,0,5.711-2.738c.442-.412.442-1.266.706-1.884.177-.412.471-.765.677-1.148.147.059.265.118.412.177v2.3c1.972-1.119,3.8-2.149,5.623-3.18l.383.383c-.353,2.208-2.179,3.68-3.18,5.682,2.8.177,4.74-1.678,6.889-2.973l.353.265c-.265.471-.442,1.148-.824,1.354-2.09,1.148-4.239,2.179-6.418,3.18a4.476,4.476,0,0,1-1.678.147c-.147-.118-.265-.236-.412-.353.736-1.5,1.472-3,2.237-4.534l-.324-.324-5.918,5.123a3.218,3.218,0,0,1-.324-.177c.206-.559.412-1.119.677-1.884-1.178.5-2.267.913-3.327,1.384-1.178.53-2.3.765-3.415-.147-.206-.177-.707-.088-1.03.029-.442.147-.854.5-1.3.677C-524.434,184-525.081,183.559-524.993,181.086Z" transform="translate(-189.997 -25.131)"/>
    <path id="Path_368" data-name="Path 368" d="M-246.731,163.893c.942-3.621-1.443-5.329-3.857-6.977-.383-.265-.854-.471-1.266-.736-1.914-1.207-2.856-.942-4.151,1-1.3,1.972-2.679,3.886-4.151,5.976a2.223,2.223,0,0,1-.177-.883,5.538,5.538,0,0,1,.883-1.825c2.826-3.327,5.682-6.653,8.6-9.921,1.236-1.384,2.65-2.591,3.974-3.857a8.016,8.016,0,0,1,.736-.471c.118.942.147.942-2.385,3.533-1,1.03-2.031,2.031-3.032,3.062.059.118.147.206.206.324,1.089-.5,2.208-.913,3.268-1.472,2.208-1.148,4.357-2.414,6.565-3.533a6.942,6.942,0,0,1,1.8-.353l.088.442c-4.122,2.12-8.243,4.239-12.571,6.447,1.236.854,2.444,1.678,3.68,2.473a5.82,5.82,0,0,1,3.062,5.3,4.78,4.78,0,0,1-.765,1.619A4.544,4.544,0,0,0-246.731,163.893Z" transform="translate(-384.208 -4.965)"/>
    <path id="Path_369" data-name="Path 369" d="M-194.5,178.438c-1.914,1.708-3.768,3.5-5.8,5.064a2.343,2.343,0,0,1-2.326.029,2.454,2.454,0,0,1-.206-2.3c.648-1.531.972-3.415,3-3.974.353-.088.618-.442.883-.707a1.735,1.735,0,0,1,3.032.5,4.88,4.88,0,0,0,.942,1.119C-194.8,178.262-194.652,178.35-194.5,178.438Zm-2.708,1.649a15.518,15.518,0,0,0-2.473-.589,1.43,1.43,0,0,0-1.119.5,17.889,17.889,0,0,0-1.178,2.237c.294.088.707.324.883.206C-199.863,181.765-198.714,181-197.213,180.087Z" transform="translate(-424.659 -25.898)"/>
    <path id="Path_370" data-name="Path 370" d="M-163.562,178.139c-1.825,1.619-3.739,3.5-5.888,5.093-.559.412-1.737.029-2.65,0,.088-.883.118-1.766.265-2.62.059-.324.383-.589.471-.913.412-2.09,2.444-2.62,3.739-3.827.883-.824,2-.236,2.591.854C-164.8,177.2-164.269,177.491-163.562,178.139Zm-2.915,1.325c-1.354,0-2.473-.324-3.209.088-.765.412-1.119,1.531-1.855,2.62C-169.127,182.29-167.949,181.024-166.477,179.464Zm.265-2.767c-.736.53-1.3.913-2.061,1.443C-166.241,178.551-165.918,178.345-166.212,176.7Z" transform="translate(-446.474 -25.628)"/>
    <path id="Path_371" data-name="Path 371" d="M-138.972,179.2c-.824,2.149-2.473,3.709-3.916,5.388.088.147.206.294.294.471,2.179-1.03,4.357-2.061,6.565-3.091.265,1.236-.765,1.649-1.59,2.061-1.3.648-2.65,1.178-4.033,1.708a6.736,6.736,0,0,1-1.708.324c-.942.059-1.413-.648-1-1.3A15.728,15.728,0,0,1-138.972,179.2Z" transform="translate(-465.942 -28.25)"/>
    <path id="Path_372" data-name="Path 372" d="M-113.6,156.559c-.029.589-.059,1.178-.118,1.766a3.488,3.488,0,0,1-.883-.206,10.153,10.153,0,0,1,.206-1.619A7.216,7.216,0,0,0-113.6,156.559Z" transform="translate(-487.046 -12.233)"/>
  </g>
</svg>
