<svg xmlns="http://www.w3.org/2000/svg" width="182.369" height="39.403" viewBox="0 0 182.369 39.403">
  <g id="Group_1854" data-name="Group 1854" transform="translate(-2614.474 2320.879)">
    <path id="Path_359" data-name="Path 359" d="M-149.107,135.3c1.089-.3,2.178-.605,3.328-.908,2.36-.605,3.146-2.783,4.659-4.356a9.151,9.151,0,0,1,3.025-1.634c.726-.3,1.029.182.847.968-.424,2-1.029,3.812-2.9,4.9-.182.121-.242.363-.363.545.061.121.121.3.182.424a26.45,26.45,0,0,0,3.146-.726c2.178-.726,3.388-2.662,4.84-4.3a14.216,14.216,0,0,0,1.392-1.936c.242.121.424.242.666.363.3,1.089.908,2.178.787,3.207-.121.968-.968,1.876-1.694,3.086.968,0,1.694.242,2.3-.061,1.573-.726,3.086-1.513,3.872-3.207a5.2,5.2,0,0,1,5.2-3.207c.182,1.573.182,1.573-3.267,6.353,1.15.726,2.239.242,3.267-.182a27.586,27.586,0,0,0,6.656-4.84,15.039,15.039,0,0,1,3.57-2.118c1.15-.545,2,.182,2.118,1.513.061.968,0,2,0,3.146a7.224,7.224,0,0,0,1.331-.3c1.936-1.029,3.872-2.057,5.748-3.146,1.331-.787,2.178-.545,2.9.787.242.424.787.726,1.15,1.15-.847.908-1.815,2.118-2.9,3.146a12.4,12.4,0,0,1-2.965,2.057c-.605.242-1.815.182-2.057-.181-.363-.545-.121-1.513,0-2.3a5.382,5.382,0,0,0,.3-1.392c-1.392.726-2.783,1.513-4.235,2.239-.484.242-.908.545-1.392.787-2.118.968-2.844.726-3.993-1.271-3.812,4.235-6.292,9.56-10.467,13.977-.666-2.783.424-4.659,1.392-6.474.968-1.876,2.118-3.691,3.207-5.627-2.481.666-4.719.968-6.232-1.089-1.694.484-3.267.968-4.9,1.271a1.769,1.769,0,0,1-1.634-.726c-.182-.424.242-1.21.484-1.755.242-.787,1.755-1.331.605-2.6-1.029,1.029-2.118,1.936-2.965,2.965a7.356,7.356,0,0,1-7.442,2.057,7.86,7.86,0,0,1-1.876-1.452c-.726.363-1.694.908-2.723,1.331a5.6,5.6,0,0,1-4.719-.061,2.046,2.046,0,0,1-1.271-2.481c.3-1.936,2.844-4.417,4.719-4.78,1.331-.242,1.634,0,1.21,1.271-.605,1.694-1.089,3.509-2.844,4.477-.182.121-.242.363-.363.545A1.237,1.237,0,0,1-149.107,135.3Zm26.078,9.257a1.267,1.267,0,0,1,.363.242c2.9-4.175,5.808-8.41,8.713-12.585-.182-.121-.3-.182-.484-.3C-118.31,135.426-121.577,139.359-123.029,144.562Zm14.884-14.219c.061-1.694-.666-2.3-2-1.271a11.409,11.409,0,0,0-2.3,2.965c-.726,1.089-.242,1.876,1.089,1.936C-109.355,133.974-108.266,132.7-108.145,130.343Zm9.076,2.118c-2.783-.908-4.356.06-4.235,2.6C-101.429,134.942-100.279,133.671-99.069,132.461Zm-42.716,1.392c2.178-.726,2.723-2.541,3.691-4.175C-139.91,129.678-141.483,131.553-141.786,133.853Zm17.667-.242a4.77,4.77,0,0,0,3.146-3.993A4.2,4.2,0,0,0-124.118,133.611Zm-22.871-3.993a4.086,4.086,0,0,0-3.509,4.114C-148.562,133.066-147.957,131.372-146.989,129.617Zm46.71,1.029c.121.242.242.424.363.666a9.505,9.505,0,0,0,1.513-.847c.061-.061-.121-.545-.242-.847C-99.19,129.98-99.735,130.343-100.279,130.646Z" transform="translate(2869.29 -2438.16)"/>
    <path id="Path_360" data-name="Path 360" d="M-266.616,127.814c-.182-1.089-.363-1.815-.484-2.6a8.827,8.827,0,0,0-2.6.908,11.1,11.1,0,0,0-2.541,3.025c-.787,1.271,0,2.42,1.513,2.42a8.408,8.408,0,0,0,3.267-.484c2.6-1.15,5.264-2.118,7.14-4.719a95.515,95.515,0,0,1,8.108-9.076,4.5,4.5,0,0,1,1.271-.787,2.63,2.63,0,0,1,.363.424c-2.662,2.783-5.264,5.566-7.926,8.35.121.061.182.182.3.242l4.175-2.723a3.327,3.327,0,0,1,.545.424,8.677,8.677,0,0,1-.847,2.057c-.787,1.271-1.815,2.481-2.6,3.751a7.441,7.441,0,0,0-.484,1.755c.605,0,1.21.242,1.755,0a10.475,10.475,0,0,0,5.022-3.812,13.663,13.663,0,0,1,1.513-1.755,3.153,3.153,0,0,1,.908-.363c-.061.424.06.968-.121,1.271-.908,1.21-1.876,2.36-2.844,3.57a12.2,12.2,0,0,0-.908,1.513c5.082-.121,7.019-4.235,10.044-6.777.121.061.3.121.424.182a4.355,4.355,0,0,1-.484,1.573c-.847,1.089-1.876,2.057-2.783,3.086a6.7,6.7,0,0,0-.666.968c.363.182.666.424.787.3a23.846,23.846,0,0,0,4.659-2.3c.726-.545.787-1.936,1.15-2.965.061-.182-.061-.424,0-.545A14.507,14.507,0,0,1-238,123.1c.06-.061.484.061.484.061a8.5,8.5,0,0,1,0,1.755c-.242.968-.605,1.876-.908,2.783.121.061.182.182.3.242.908-.605,1.815-1.271,2.723-1.876a2.122,2.122,0,0,1,.484-.3c.787-.363,1.634-.666,2.42-.968.182.726.3,1.513.484,2.3,1.392-1.029,2.844-2.057,4.417-3.207.908,1.513-.061,2.481-.484,3.509s-.968,2.057-1.452,3.086a5.452,5.452,0,0,0,.605.545c2.057-1.15,4.054-2.239,6.292-3.449,0,1.634-1.392,2.178-2.239,2.723a11.088,11.088,0,0,1-3.751,1.331c-1.755.424-2.36-.363-1.694-2.057a13.4,13.4,0,0,0,1.029-3.328c-1.936,1.936-3.872,3.872-5.808,5.869a5.233,5.233,0,0,0-.605-.424c.847-1.755,1.634-3.509,2.481-5.264-.182-.121-.3-.242-.484-.363-.605.424-1.271.847-1.876,1.331-1.513,1.392-3.025,2.9-4.538,4.3a4.771,4.771,0,0,1-1.392.545l-.182-.363c.182-.545.424-1.089.726-1.876a28.085,28.085,0,0,1-3.086,1.271c-.545.182-1.331.363-1.634.121-1.452-1.029-2.541-.182-3.751.363a3.3,3.3,0,0,1-1.936.484,7.183,7.183,0,0,1-2-1.089c.06-.182.06-.3.121-.484a15.382,15.382,0,0,1-2.783,1.029c-.847.182-2.118.3-2.6-.182-.847-.726-.06-1.755.484-2.541.847-1.331,1.755-2.6,2.541-3.993-3.207,1.815-5.385,4.78-8.047,7.624-.182-.847-.242-1.21-.3-1.634a1.5,1.5,0,0,0-.545.061,12.077,12.077,0,0,1-6.474,1.392c-2.057-.121-3.207-1.755-2.178-3.57,1.271-2.3,2.783-4.417,5.748-4.659a1.7,1.7,0,0,1,1.452.787,8.2,8.2,0,0,1,.363,2.481C-265.647,127.633-266.373,127.754-266.616,127.814Z" transform="translate(2917.218 -2433.816)"/>
    <path id="Path_361" data-name="Path 361" d="M-304.5,128.09c1.392-1.513,3.63-1.936,4.78-3.993.605-1.089,2.178-1.815,3.449-2.3,1.452-.545,1.815.726,2,1.936.423.061.787.061,1.21.121,0,.182.06.363,0,.424a47.392,47.392,0,0,1-3.449,3.509,7.309,7.309,0,0,1-2.844,1.573c-1.271.484-2-.061-2.3-1.513-2.42,1.21-4.417,2.662-5.566,5.264a57.59,57.59,0,0,1-8.471,13.069,24.39,24.39,0,0,1-3.207,3.388,2.792,2.792,0,0,1-2.178.363c-.424-.121-.666-1.15-.726-1.815-.121-2.42,1.21-4.356,2.6-6.172,3.025-3.993,6.837-7.14,10.709-10.225a10.172,10.172,0,0,0,3.207-5.324,46.227,46.227,0,0,0,1.573-6.958,8.2,8.2,0,0,0-1.392-6.111c-1.271-1.755-4.054-2.3-6.716-1.15a16.948,16.948,0,0,0-8.047,6.353c-1.573,2.541-1.21,6.837,2.178,8.592a13.167,13.167,0,0,0,9.681,1.452.709.709,0,0,1,.665.3.744.744,0,0,1-.06.787,1.647,1.647,0,0,1-.968.484c-3.993.182-7.805-.545-10.891-3.086-2.783-2.3-3.025-6.6-.847-9.741,2-2.844,4.9-4.538,7.926-5.99,2.965-1.452,6.716-.605,8.047,1.634a10.943,10.943,0,0,1,1.271,8.471c-.545,2.239-1.15,4.417-1.755,6.6Zm-3.933,4.84a.211.211,0,0,1-.121-.061c-4.417,3.449-8.592,7.14-11.617,11.919a4.751,4.751,0,0,0-.545,4.235C-318.114,148.48-309.523,137.166-308.433,132.931Zm12.283-7.382c-.968,0-2.178-.3-2.9.061-.786.424-1.21,1.573-1.876,2.662C-298.45,128.514-297.422,126.941-296.151,125.549Zm-1.15-1.513c.06.182.182.363.242.545a9.485,9.485,0,0,0,1.694-.605c.182-.121,0-.666,0-1.392C-296.272,123.25-296.756,123.673-297.3,124.036Z" transform="translate(2936.286 -2431.49)"/>
    <path id="Path_362" data-name="Path 362" d="M-171.605,123.006c.484.121,1.15.545,1.513.363,2.178-1.029,4.3-2.178,6.414-3.388a1.372,1.372,0,0,0,.424-1.089c0-.182-.605-.424-.968-.424a20.08,20.08,0,0,0-8.955,2.3c-.545.363-.726,1.392-1.029,2.057-.968-.847-.787-2.36.726-3.025a22.681,22.681,0,0,1,9.56-2.3,1.856,1.856,0,0,1,1.452.787,2.118,2.118,0,0,1-.121,1.815,12.846,12.846,0,0,1-2.178,1.815c-.545.363-1.089.666-1.694,1.089,2.6,1.876,2.723,2.42.3,4.477a45.235,45.235,0,0,1-5.385,3.449,18.288,18.288,0,0,1-3.509,1.573c-.908.242-1.876.908-2.723-.424a1.185,1.185,0,0,1,.121-1.634c1.029-1.392,2.178-2.662,3.207-4.054.968-1.271,1.755-2.6,2.662-3.933A.559.559,0,0,0-171.605,123.006Zm-5.445,8.168.363.545a20,20,0,0,0,2.723-.726,23.08,23.08,0,0,0,3.449-1.755c1.392-.847,2.723-1.755,4.054-2.723.968-.726.908-1.876.121-1.876a26.672,26.672,0,0,0-5.808.605c-.787.182-1.271,1.331-1.936,2.057a6.106,6.106,0,0,0-.787.968Z" transform="translate(2879.506 -2434.211)"/>
    <path id="Path_363" data-name="Path 363" d="M-35.624,131.007c-.726,2.118-4.961,3.388-6.6,2.541a2.45,2.45,0,0,1-1.089-3.086,32.891,32.891,0,0,1,1.331-3.025c.182-.484.424-.908.666-1.513h-3.267c-.061-.121-.061-.3-.121-.424.666-.242,1.392-.726,2-.605,2.42.3,3.509-1.15,4.659-2.844a16.861,16.861,0,0,1,1.21-1.452c.847,1.815-1.21,2.36-1.029,3.751H-30v.363c-1.936.182-3.812.363-5.748.484a7.031,7.031,0,0,0-6.6,5.385,1.619,1.619,0,0,0,1.815,2.178,18.734,18.734,0,0,0,3.146-.908C-36.834,131.551-36.229,131.309-35.624,131.007Z" transform="translate(2826.84 -2435.435)"/>
    <path id="Path_364" data-name="Path 364" d="M-49.832,131.355c-1.513,1.452-2.965,3.025-4.659,4.417-.968.847-2.42,1.513-3.509.545s.061-2.178.363-3.267c.605-1.876,2.3-2.723,3.691-3.751,1.21-.908,2.118-.424,2.783.968A8.006,8.006,0,0,0-49.832,131.355Zm-3.086,1.331c-.968,0-2.178-.3-2.965.121s-1.089,1.573-1.815,2.723C-55.217,135.651-54.188,134.078-52.917,132.686Zm.787-2.481c-.121-.061-.3-.121-.424-.181-.484.424-.968.787-1.452,1.21a1.424,1.424,0,0,1,.121.484,6.143,6.143,0,0,0,1.513-.363C-52.191,131.174-52.191,130.629-52.131,130.206Z" transform="translate(2832.275 -2438.688)"/>
  </g>
</svg>
