<svg xmlns="http://www.w3.org/2000/svg" width="25" height="28" viewBox="0 0 40 43.637">
  <path id="iconmonstr-networking-7" d="M17.836,7.584c-1.055-.52-1.987-.94-2.875-1.307C16.362,2.495,18.383,0,21,0c2.549,0,4.535,2.365,5.927,5.986-.895.384-1.815.813-2.858,1.344C23,4.48,21.782,3.193,21,3.193,20.2,3.193,18.927,4.556,17.836,7.584ZM21,40.444c-.78,0-2-1.287-3.069-4.136-1.055.536-1.965.96-2.858,1.344,1.395,3.62,3.378,5.986,5.927,5.986,2.616,0,4.638-2.495,6.038-6.276-.882-.365-1.813-.784-2.875-1.307C23.073,39.081,21.8,40.444,21,40.444Zm-8.56-4.029C8.954,37.7,3.752,38.946,1.683,35.839.661,34.3.281,31.351,4.265,26.006a42.377,42.377,0,0,1,3.522-4.089A67.012,67.012,0,0,1,17.8,13.557a46.8,46.8,0,0,0-6.211-2.893A16.932,16.932,0,0,0,6.1,9.436a2.358,2.358,0,0,0-1.835.525c-.238.349-.251,1.424.809,3.349l.382-.022a3.513,3.513,0,0,1,0,7.026A3.482,3.482,0,0,1,2.01,16.8a3.53,3.53,0,0,1,.447-1.727C.44,11.511.856,9.367,1.7,8.138,2.285,7.273,3.53,6.244,6.1,6.244c4.571,0,10.729,3.018,14.695,5.356,4.026-2.478,10.395-5.746,15.1-5.746,2.584,0,3.829,1.056,4.42,1.944,1.022,1.536,1.4,4.487-2.582,9.831C32.127,25.151,20.978,33.277,12.44,36.415ZM35.236,15.7c2.738-3.671,2.822-5.6,2.484-6.111-.229-.344-.895-.542-1.824-.542-3.551,0-8.956,2.653-12.069,4.449a72.463,72.463,0,0,1,6.4,4.758c-.74.751-1.516,1.489-2.311,2.2a68.8,68.8,0,0,0-7.091-5.111A68.815,68.815,0,0,0,12.46,21.8a67.432,67.432,0,0,0,6.766,5.224c-.949.6-1.909,1.178-3,1.782l-.024-.016A69.892,69.892,0,0,1,10.169,24C5.045,29.237,3.6,33.03,4.28,34.05c.229.344.895.542,1.824.542,4.273,0,11.055-3.667,15.067-6.3C26.1,25.064,31.714,20.424,35.236,15.7Zm4.322,12.893a3.535,3.535,0,0,0,.4-1.642,3.45,3.45,0,1,0-3.449,3.513l.469-.033c1.005,1.862.989,2.905.755,3.249A2.369,2.369,0,0,1,35.9,34.2c-2.913,0-6.969-1.718-9.582-3.015-.873.622-1.958,1.36-3.016,2.035,3.5,1.885,8.651,4.173,12.6,4.173,2.573,0,3.818-1.029,4.407-1.895.838-1.225,1.255-3.364-.747-6.909Z" transform="translate(-1.001)" fill="#fff"/>
</svg>
