<svg xmlns="http://www.w3.org/2000/svg" width="20.283" height="19.783" viewBox="0 0 20.283 19.783">
  <path id="iconmonstr-github-1" d="M10.142,0A10.143,10.143,0,0,0,6.936,19.765c.506.094.67-.221.67-.488V17.389C4.785,18,4.2,16.193,4.2,16.193a2.686,2.686,0,0,0-1.127-1.484c-.92-.63.07-.616.07-.616A2.129,2.129,0,0,1,4.7,15.138a2.159,2.159,0,0,0,2.951.843,2.152,2.152,0,0,1,.644-1.356C6.038,14.367,3.67,13.5,3.67,9.613A3.925,3.925,0,0,1,4.715,6.89a3.648,3.648,0,0,1,.1-2.684s.852-.272,2.79,1.04a9.613,9.613,0,0,1,5.078,0c1.936-1.312,2.786-1.04,2.786-1.04a3.644,3.644,0,0,1,.1,2.684,3.915,3.915,0,0,1,1.044,2.722c0,3.9-2.372,4.753-4.63,5a2.424,2.424,0,0,1,.7,1.878v2.783c0,.27.162.587.677.487A10.144,10.144,0,0,0,10.142,0Z" fill="#171515"/>
</svg>
