<svg xmlns="http://www.w3.org/2000/svg" xmlns:xlink="http://www.w3.org/1999/xlink" width="20" height="240.741" viewBox="0 0 20 240.741">
  <defs>
    <linearGradient id="linear-gradient" x1="0.5" x2="0.5" y2="1" gradientUnits="objectBoundingBox">
      <stop offset="0" stop-color="#ff7f4f"/>
      <stop offset="0.594" stop-color="#ff7f4f"/>
      <stop offset="1" stop-color="#fff"/>
    </linearGradient>
  </defs>
  <path id="Exclusion_8" data-name="Exclusion 8" d="M9.723,240.741a2,2,0,0,1-2-2V39.449a10,10,0,0,1,0-19.48V10.8a2,2,0,0,1,4,0v9.058a10,10,0,0,1,0,19.7v199.18A2,2,0,0,1,9.723,240.741ZM10,23.709a6,6,0,1,0,6,6A6.007,6.007,0,0,0,10,23.709Zm-.277-17a2,2,0,0,1-2-2V2a2,2,0,0,1,4,0V4.709A2,2,0,0,1,9.723,6.709Z" transform="translate(0 0)" opacity="0.8" fill="url(#linear-gradient)"/>
</svg>
