<svg xmlns="http://www.w3.org/2000/svg" width="14.866" height="25.485" viewBox="0 0 14.866 25.485">
  <path id="iconmonstr-light-bulb-2" d="M19.866,7.151c0,4.422-3.982,7.412-3.982,10.9H13.769c0-2.208,1.059-4.063,2.09-5.854.968-1.683,1.884-3.274,1.884-5.047a5.02,5.02,0,0,0-5.314-5.027A5.015,5.015,0,0,0,7.124,7.151c0,1.773.915,3.364,1.884,5.047,1.031,1.791,2.088,3.646,2.089,5.854H8.982C8.982,14.562,5,11.571,5,7.151,5,2.539,8.714,0,12.429,0S19.866,2.542,19.866,7.151ZM15.619,19.645a.531.531,0,0,1-.531.531H9.778a.531.531,0,0,1,0-1.062h5.309A.531.531,0,0,1,15.619,19.645Zm0,2.124a.531.531,0,0,1-.531.531H9.778a.531.531,0,1,1,0-1.062h5.309A.531.531,0,0,1,15.619,21.768Zm-1.806,3.354a1.067,1.067,0,0,1-.8.362H11.852a1.065,1.065,0,0,1-.8-.362L9.513,23.361h5.84l-1.541,1.762Z" transform="translate(-5)" fill="#232323"/>
</svg>
