<svg xmlns="http://www.w3.org/2000/svg" width="68.467" height="12.8" viewBox="0 0 68.467 12.8">
  <path id="discord_full" d="M4.619.181H0V5.412L3.075,8.195V3.117H4.731c1.043,0,1.558.515,1.558,1.322V8.32c0,.807-.487,1.35-1.558,1.35H0v2.95H4.619c2.477.014,4.8-1.224,4.8-4.091V4.341c0-2.894-2.324-4.16-4.8-4.16ZM28.828,8.543V4.257c0-1.544,2.755-1.906,3.59-.348l2.546-1.043A4.577,4.577,0,0,0,30.623,0C28.147,0,25.7,1.447,25.7,4.257V8.543c0,2.824,2.449,4.257,4.87,4.257A4.973,4.973,0,0,0,35.02,10L32.293,8.738c-.668,1.725-3.464,1.308-3.464-.195ZM20.4,4.842c-.96-.209-1.6-.557-1.642-1.155.056-1.447,2.268-1.489,3.562-.111L24.362,1.99A5.06,5.06,0,0,0,20.133,0c-2.268,0-4.466,1.28-4.466,3.729,0,2.379,1.809,3.645,3.8,3.951,1.016.139,2.143.543,2.115,1.252-.083,1.336-2.81,1.266-4.049-.25l-1.962,1.864a5.433,5.433,0,0,0,4.2,2.254c2.268,0,4.786-1.322,4.884-3.729C24.794,6.011,22.6,5.245,20.4,4.842Zm-9.308,7.778h3.117V.181H11.089ZM63.681.181H59.062V5.412l3.075,2.783V3.117h1.642c1.044,0,1.558.515,1.558,1.322V8.32c0,.807-.487,1.35-1.558,1.35H59.048v2.95h4.619c2.477.014,4.8-1.224,4.8-4.091V4.341C68.481,1.447,66.158.181,63.681.181ZM41,0C38.442,0,35.9,1.405,35.9,4.271V8.529c0,2.852,2.56,4.271,5.134,4.271s5.106-1.419,5.106-4.271V4.271C46.137,1.419,43.563,0,41,0Zm2,8.529c0,.89-1,1.35-1.99,1.35s-2-.445-2-1.35V4.271c0-.918.974-1.405,1.948-1.405,1.016,0,2.045.445,2.045,1.405ZM57.337,4.271C57.267,1.35,55.291.181,52.745.181H47.806V12.633h3.158V8.668h.557l2.866,3.951h3.9L54.916,8.348C56.418,7.875,57.337,6.581,57.337,4.271ZM52.8,5.955H50.964V3.117H52.8A1.42,1.42,0,1,1,52.8,5.955Z" transform="translate(0 0)"/>
</svg>
