<svg id="youtube_full" xmlns="http://www.w3.org/2000/svg" width="59.023" height="24.884" viewBox="0 0 59.023 24.884">
  <path id="Path_350" data-name="Path 350" d="M22.028,20.124H19.794V18.817a3.286,3.286,0,0,1-2.35,1.476,1.408,1.408,0,0,1-1.412-.917,5.489,5.489,0,0,1-.232-1.76V8.108h2.234v9.76c.053.316.19.443.474.443.422,0,.822-.39,1.3-1.054V8.108h2.234V20.124m-7.915-8.095a4.766,4.766,0,0,0-.7-2.846,2.894,2.894,0,0,0-2.477-1.159A2.742,2.742,0,0,0,8.474,9.183a4.729,4.729,0,0,0-.706,2.846v4.29a4.37,4.37,0,0,0,.675,2.74,3.043,3.043,0,0,0,2.5,1.265,3.115,3.115,0,0,0,2.53-1.265,4.692,4.692,0,0,0,.632-2.74V12.008ZM11.91,16.561c.105,1.191-.263,1.792-.949,1.792s-1.054-.6-.949-1.792V11.8c-.105-1.191.253-1.75.949-1.75s1.054.559.949,1.75ZM5.3,13.589v6.535H2.951V13.589S.5,5.537,0,4.04H2.477l1.655,6.282L5.776,4.051H8.242L5.291,13.579" transform="translate(0 0.007)"/>
  <path id="Path_351" data-name="Path 351" d="M42.8,9.7a1.774,1.774,0,0,0-1.107.548v7.23a1.556,1.556,0,0,0,1.1.527c.632,0,.9-.443.9-1.634V11.249c0-1.191-.285-1.539-.906-1.539m8.811,1.433c0-1.107-.285-1.433-.991-1.433s-1.012.316-1.012,1.423v1.317h2v-1.3" transform="translate(2.25 0.313)"/>
  <path id="Path_352" data-name="Path 352" d="M57.454,5.554a7.753,7.753,0,0,0-1.4-3.51,4.923,4.923,0,0,0-3.52-1.5C47.61.2,40.221.2,40.221.2H40.2S32.823.2,27.9.548a5.022,5.022,0,0,0-3.531,1.5,7.649,7.649,0,0,0-1.391,3.51,52.98,52.98,0,0,0-.358,5.734v2.688a52.658,52.658,0,0,0,.358,5.723,7.674,7.674,0,0,0,1.391,3.52,5.864,5.864,0,0,0,3.879,1.507c2.814.274,11.963.358,11.963.358s7.409,0,12.332-.358a5,5,0,0,0,3.52-1.5,7.735,7.735,0,0,0,1.4-3.52,55.966,55.966,0,0,0,.337-5.734V11.288A54.558,54.558,0,0,0,57.454,5.554ZM30.346,20.331H28V6.629H25.518V4.395h7.42V6.629H30.356v13.7Zm8.485,0H36.6V19.024a3.286,3.286,0,0,1-2.35,1.476,1.408,1.408,0,0,1-1.412-.917,5.489,5.489,0,0,1-.232-1.76v-9.4h2.234v9.665c.053.316.19.443.474.443.422,0,.822-.39,1.3-1.054V8.421H38.83Zm8.116-3.562a9.819,9.819,0,0,1-.211,2.382,1.766,1.766,0,0,1-1.76,1.339,3.055,3.055,0,0,1-2.256-1.349v1.2H40.59V4.395H42.7V9.58a3.1,3.1,0,0,1,2.266-1.339,1.709,1.709,0,0,1,1.686,1.37,8.018,8.018,0,0,1,.3,2.393Zm4.7,1.76a.912.912,0,0,0,.949-.875c.021-.105.021-.632.021-1.5h2.234v.337a13.185,13.185,0,0,1-.074,1.4,3.169,3.169,0,0,1-.5,1.3A2.95,2.95,0,0,1,51.7,20.479a3.02,3.02,0,0,1-2.572-1.223,4.434,4.434,0,0,1-.738-2.74V12.342a4.9,4.9,0,0,1,.717-2.867,3.052,3.052,0,0,1,2.551-1.244,2.987,2.987,0,0,1,2.53,1.244,4.946,4.946,0,0,1,.685,2.814v2.456H50.635v2.129c0,1.107.316,1.655,1.033,1.655Z" transform="translate(1.221 -0.2)"/>
</svg>
