<svg xmlns="http://www.w3.org/2000/svg" width="81.095" height="16.222" viewBox="0 0 81.095 16.222">
  <g id="layer1" transform="translate(0 0)">
    <g id="g4147">
      <path id="path4223" d="M-339.454,505.327a6.132,6.132,0,0,1-3.771-3.122c-.568-1.146-.568-1.138-.569-6.408-.067-4.558-.042-4.705.262-5.145a1.965,1.965,0,0,1,3-.485c.655.577.707.773.707,2.659v1.636h2.752a31.48,31.48,0,0,1,3.165.089,1.861,1.861,0,0,1,.984,3.1,2.489,2.489,0,0,1-.538.405c-.313.169-.429.176-3.344.2l-3.02.025v.73c0,1.061.11,1.409.6,1.9.575.575.729.6,3.426.6,2.092,0,2.28.014,2.619.167a1.969,1.969,0,0,1,.657,3.18c-.554.614-.59.62-3.657.617A13.316,13.316,0,0,1-339.454,505.327Zm12.256.035a5.9,5.9,0,0,1-3.321-2.445c-.725-1.1-.866-1.876-.87-4.771,0-2.5.047-2.81.527-3.3a1.587,1.587,0,0,1,1.381-.579,1.4,1.4,0,0,1,.971.243,2.1,2.1,0,0,1,.642.642c.3.527.248.748.286,2.916.04,2.468.044,2.526.231,2.825a1.76,1.76,0,0,0,2.792.32c.5-.485.545-.77.545-3.319,0-2.1.009-2.237.171-2.559a1.828,1.828,0,0,1,1.489-1.083,1.973,1.973,0,0,1,1.929,1.055c.171.32.182.452.22,2.814-.014,1.966.079,2.541.264,2.816a1.771,1.771,0,0,0,2.619.4c.558-.49.558-.488.6-3.227.039-2.351.05-2.489.22-2.808a1.886,1.886,0,0,1,3.3-.155c.508.7.285,2.193.285,3.154a11.912,11.912,0,0,1-.258,3.384,5.786,5.786,0,0,1-3.551,3.574,7.415,7.415,0,0,1-3.067.11,5.668,5.668,0,0,1-1.881-.863l-.484-.339-.484.339a5.549,5.549,0,0,1-1.824.856,8.04,8.04,0,0,1-2.741,0Zm16.836.012a2.511,2.511,0,0,1-1.032-.972c-.176-.329-.178-.366-.178-4.507,0-3.985.007-4.189.159-4.5a2.014,2.014,0,0,1,3.25-.571c.615.615.613.6.587,5.2-.023,3.969-.026,4.05-.2,4.368a2.286,2.286,0,0,1-1.018.969,2.776,2.776,0,0,1-1.569.011Zm8.507-.046a6.064,6.064,0,0,1-4.033-3.66c-.357-.952-.386-1.437-.359-6.15.025-4.348.028-4.423.2-4.742a2.022,2.022,0,0,1,3.719.319,7.942,7.942,0,0,1,.119,1.877v1.477l1.925.029c1.78.027,1.95.042,2.25.2a1.875,1.875,0,0,1,.012,3.373c-.315.168-.457.181-2.268.206l-1.932.027.027.946c.031,1.1.157,1.435.7,1.855.48.368.782.428,2.159.429,1.105,0,1.253.019,1.626.192a1.993,1.993,0,0,1,0,3.628,13.064,13.064,0,0,1-4.147-.009Zm10.321,0a6.151,6.151,0,0,1-4.246-4.345c-.13-.509-.144-1.023-.145-5.186.031-4.321-.184-4.152.221-5.041a2.042,2.042,0,0,1,2.446-.99A2.509,2.509,0,0,1-292,491.026a13.386,13.386,0,0,1,.088,1.877v1.56h1.651c1.891,0,2.393.07,2.848.4a1.9,1.9,0,0,1,.042,3c-.482.349-.938.416-2.843.416h-1.7v.734a2.337,2.337,0,0,0,.494,1.808c.522.593.715.649,2.391.7,1.458.042,1.468.044,1.864.289a2.294,2.294,0,0,1,.956,1.41,2.116,2.116,0,0,1-.935,2.01l-.339.224-1.749.018A7.836,7.836,0,0,1-291.534,505.332Zm10.119.037a5.84,5.84,0,0,1-2.913-1.755,5.313,5.313,0,0,1-1.5-3.906,5.5,5.5,0,0,1,.554-2.528,4.535,4.535,0,0,1,1.514-1.869,7.552,7.552,0,0,1,7.475-.187,5.519,5.519,0,0,1,1.958,2.1c.788,1.6.708,3.044-.193,3.514-.312.163-.457.17-3.749.192l-3.425.023v.213c0,.332.528.781,1.109.944a11.138,11.138,0,0,0,2.666.136,23.061,23.061,0,0,1,2.477.082,1.622,1.622,0,0,1,.447,2.955c-.4.269-.638.2-3.18.2a20.447,20.447,0,0,1-3.236-.115Zm3.564-7.2c-.153-.511-.59-.814-1.39-.962a2.493,2.493,0,0,0-2.271.672c-.1.21-.2.449-.2.449s.708.024,1.964.024h1.948Zm6.117,7.16a2.237,2.237,0,0,1-.969-1.148,19.4,19.4,0,0,1-.061-2.781c.03-2.4.033-2.451.252-3.107a5.767,5.767,0,0,1,3.905-3.636,20.309,20.309,0,0,1,4.359-.12,1.813,1.813,0,0,1,1.518,1.8,1.827,1.827,0,0,1-1,1.709c-.308.163-.485.18-2.239.219-1.819.041-1.919.051-2.211.233a1.772,1.772,0,0,0-.78,1.026,19.081,19.081,0,0,0-.089,2.436c0,2.112,0,2.112-.211,2.535a1.762,1.762,0,0,1-.588.684,1.393,1.393,0,0,1-.985.283A1.538,1.538,0,0,1-271.733,505.332Zm-38.728-12.295a1.978,1.978,0,0,1-.452-3.273,1.75,1.75,0,0,1,1.328-.489,1.915,1.915,0,0,1,1.795,1.08A2,2,0,0,1-310.461,493.037Z" transform="translate(343.824 -489.275)"/>
    </g>
  </g>
</svg>
