<svg xmlns="http://www.w3.org/2000/svg" width="89.837" height="25.485" viewBox="0 0 89.837 25.485">
  <path id="instagram_full" d="M28.622,48.409a8.453,8.453,0,0,0-4.5,5.673c-.809,3.458,2.556,4.921,2.832,4.441.325-.563-.6-.754-.794-2.548a7.541,7.541,0,0,1,2.187-6.043c.252-.211.24.083.24.626,0,.972-.054,9.7-.054,11.517a16.15,16.15,0,0,1-.285,4.01c-.185.779-.483,1.305-.257,1.508.252.227,1.328-.313,1.951-1.182A6.483,6.483,0,0,0,31,62.757c.057-1.639.054-4.241.057-5.725,0-1.361.023-5.346-.024-7.742-.011-.588-1.641-1.2-2.41-.882M93.915,59.939a7.527,7.527,0,0,1-.695,2.988c-.681,1.367-2.095,1.792-2.695-.174a11.1,11.1,0,0,1-.107-4.355c.239-1.523.908-2.673,2.014-2.569,1.092.1,1.6,1.509,1.482,4.11Zm-18.4,7.946c-.015,2.128-.35,3.994-1.068,4.536a1.286,1.286,0,0,1-2.1-1.361c.251-1.374,1.437-2.778,3.175-4.492,0,0,0,.391,0,1.317Zm-.278-7.959a8.422,8.422,0,0,1-.695,3c-.681,1.367-2.1,1.794-2.695-.174a9.869,9.869,0,0,1-.107-4.182c.259-1.423.887-2.743,2.014-2.743,1.1,0,1.637,1.2,1.482,4.1Zm-10.661-.018a7.611,7.611,0,0,1-.695,3.018c-.7,1.358-2.084,1.788-2.695-.174a10.518,10.518,0,0,1-.107-4.386c.272-1.546.952-2.643,2.014-2.539,1.091.107,1.622,1.509,1.482,4.08Zm48.855,1.443c-.267,0-.388.275-.489.738-.349,1.609-.716,1.973-1.19,1.973-.529,0-1-.8-1.126-2.392a53.252,53.252,0,0,1,.042-5.86c.025-.472-.105-.939-1.371-1.4-.545-.2-1.336-.489-1.731.463a23.686,23.686,0,0,0-1.652,5.69c-.005.045-.06.054-.07-.051a44.2,44.2,0,0,1-.23-4.608,1.38,1.38,0,0,0-.684-1.318c-.37-.234-1.5-.648-1.9-.155a10.384,10.384,0,0,0-1.18,2.77c-.343,1.044-.582,1.75-.582,1.75s0-2.816.009-3.884a.547.547,0,0,0-.358-.562,7.5,7.5,0,0,0-1.428-.291c-.387,0-.482.216-.482.532,0,.041-.061,3.708-.061,6.271,0,.111,0,.233,0,.362-.214,1.178-.908,2.778-1.664,2.778s-1.113-.669-1.113-3.725c0-1.783.054-2.558.08-3.848.015-.743.045-1.313.043-1.443-.006-.4-.692-.6-1.011-.671a2.99,2.99,0,0,0-.817-.091.51.51,0,0,0-.526.5c0,.149,0,.433,0,.433a2.951,2.951,0,0,0-1.46-1.184,2.809,2.809,0,0,0-3.238,1.221,7.429,7.429,0,0,0-1.317,3.764,11.172,11.172,0,0,0,.137,3.42c-.267,1.153-.761,1.625-1.3,1.625-.787,0-1.357-1.284-1.291-3.505a20.137,20.137,0,0,1,.655-3.969,1.285,1.285,0,0,0-.252-1.28,1.588,1.588,0,0,0-1.577-.257c-.556.13-1.35.271-2.077.378a4.2,4.2,0,0,0,.08-.483c.189-1.618-1.569-1.486-2.13-.97a1.99,1.99,0,0,0-.649,1.326,1.564,1.564,0,0,0,.71,1.528,15.8,15.8,0,0,1-1.662,4.134,17.842,17.842,0,0,1-1.036,1.627q0-.283,0-.565c-.009-2.673.027-4.777.043-5.536.015-.743.045-1.3.043-1.427,0-.29-.174-.4-.526-.539a3.735,3.735,0,0,0-1.063-.237c-.483-.038-.773.218-.766.521,0,.057,0,.408,0,.408a2.951,2.951,0,0,0-1.46-1.184,2.809,2.809,0,0,0-3.238,1.221A8.057,8.057,0,0,0,69.244,59.1a11.5,11.5,0,0,0,.068,3.218c-.182.9-.7,1.839-1.3,1.839-.756,0-1.186-.669-1.186-3.725,0-1.783.054-2.558.08-3.848.015-.743.045-1.313.043-1.443-.006-.4-.692-.6-1.011-.671a2.939,2.939,0,0,0-.844-.089.543.543,0,0,0-.5.479v.45a2.951,2.951,0,0,0-1.46-1.184A2.819,2.819,0,0,0,59.9,55.348a7.127,7.127,0,0,0-1.317,3.734,12.579,12.579,0,0,0-.1,1.632c-.236,1.443-1.278,3.105-2.13,3.105-.5,0-.974-.967-.974-3.029,0-2.746.17-6.656.2-7.033l1.285-.021c.537-.006,1.024.007,1.739-.03.359-.018.7-1.306.334-1.465a12.813,12.813,0,0,0-1.824-.145c-.4-.009-1.5-.09-1.5-.09s.1-2.6.122-2.869c.02-.228-.276-.346-.446-.418a6.107,6.107,0,0,0-1.218-.348c-.6-.125-.878,0-.931.507-.081.774-.122,3.039-.122,3.039-.443,0-1.957-.087-2.4-.087-.412,0-.856,1.771-.287,1.793.655.025,1.8.047,2.554.07,0,0-.034,3.974-.034,5.2,0,.131,0,.256,0,.378a6,6,0,0,1-1.884,3.344,3.274,3.274,0,0,0-1.488-3.428c-.427-.337-1.27-.974-2.214-1.672A5.7,5.7,0,0,0,48.3,55.9c.343-.768.358-1.646-.485-1.84a2.519,2.519,0,0,0-2.883,1.794,2.081,2.081,0,0,0,.4,2.126c.038.048.079.1.122.145-.314.606-.746,1.422-1.112,2.054-1.015,1.756-1.782,3.146-2.362,3.146-.463,0-.457-1.411-.457-2.731,0-1.139.084-2.85.151-4.622a1.29,1.29,0,0,0-.762-1.222,3.424,3.424,0,0,0-1.3-.545c-.552,0-2.146.075-3.651,4.43-.19.549-.562,1.549-.562,1.549l.032-5.237a.365.365,0,0,0-.215-.323,3.716,3.716,0,0,0-1.534-.419q-.431,0-.43.4l-.053,8.193a12.043,12.043,0,0,0,.078,1.666,1.747,1.747,0,0,0,.284.731.813.813,0,0,0,.5.319c.218.045,1.412.2,1.474-.258a16.78,16.78,0,0,1,.7-3.345A13.31,13.31,0,0,1,39.078,56.2c.1-.1.224-.11.218.06-.026.753-.115,2.635-.176,4.233-.162,4.278.616,5.071,1.728,5.071.851,0,2.05-.845,3.336-2.986.8-1.334,1.58-2.641,2.139-3.584.39.361.827.749,1.264,1.164a2.818,2.818,0,0,1,1.128,2.749c-.169.664-.806,1.349-1.94.683-.331-.194-.472-.344-.8-.563a.571.571,0,0,0-.615-.03,2.187,2.187,0,0,0-.806,1.231c-.135.491.356.75.866.977A6.718,6.718,0,0,0,47.4,65.6c2.342.078,4.218-1.131,5.524-4.25.234,2.694,1.229,4.218,2.957,4.218,1.156,0,2.314-1.494,2.821-2.963a5.21,5.21,0,0,0,.639,1.56c1.332,2.11,3.916,1.656,5.214-.136a3.339,3.339,0,0,0,.462-.753,2.443,2.443,0,0,0,2.332,2.283,2.578,2.578,0,0,0,2.408-1.837,4.35,4.35,0,0,0,.243.442c1.332,2.11,3.916,1.656,5.214-.136.061-.084.114-.16.161-.229l.038,1.112-1.2,1.1c-2,1.835-3.522,3.228-3.634,4.849a2.743,2.743,0,0,0,2.8,2.937,3.577,3.577,0,0,0,3.21-1.679,9.577,9.577,0,0,0,1-4.839c-.012-.78-.032-1.773-.047-2.836a22.726,22.726,0,0,0,2.225-3.057,23.134,23.134,0,0,0,2.083-4.46s.74.006,1.53-.045c.253-.016.325.035.279.22-.056.224-1,3.856-.139,6.275a3.032,3.032,0,0,0,2.7,2.189A2.679,2.679,0,0,0,88.5,63.836a3.635,3.635,0,0,0,.181.329c1.332,2.11,3.907,1.653,5.214-.136a5.344,5.344,0,0,0,.462-.753,2.536,2.536,0,0,0,2.423,2.292c.813,0,1.584-.333,2.21-1.814a6.7,6.7,0,0,0,.132,1.353c.04.1.271.232.438.294a3.358,3.358,0,0,0,1.782.089c.194-.039.346-.2.367-.6a23.743,23.743,0,0,1,.341-4.153,12.216,12.216,0,0,1,1.278-3.5c.133-.238.284-.278.289-.025.011.51.037,2.009.245,4.023a9.158,9.158,0,0,0,.515,2.633,1.449,1.449,0,0,0,1.453.83c.287,0,.887-.079.833-.583a16.086,16.086,0,0,1,.55-3.946,19.219,19.219,0,0,1,1.132-3.183c.077-.174.113-.037.111-.01a28.616,28.616,0,0,0,.258,5.947c.542,2.378,2.11,2.644,2.656,2.644,1.166,0,2.12-.887,2.441-3.222.077-.562-.037-1-.381-1" transform="translate(-23.998 -48.32)"/>
</svg>
