<svg width="74" height="27" viewBox="0 0 74 27" fill="none" xmlns="http://www.w3.org/2000/svg">
<path d="M48.5068 7.35901H45.9221V20.9218H48.5068V7.35901Z" fill="black"/>
<path d="M48.5068 2.80548H45.9221V5.79241H48.5068V2.80548Z" fill="black"/>
<path d="M62.964 8.92592C62.0444 7.89771 60.2549 6.99298 58.2169 6.99298C53.2219 6.99298 50.811 11.0812 50.811 14.0928C50.811 17.3976 53.6192 21.2656 58.1695 21.2656C61.0775 21.2656 62.4445 19.7724 62.9165 19.1356H62.9661C62.9661 22.6611 60.8534 23.9095 58.1199 23.9342C55.6594 23.9342 54.5911 22.514 54.1954 21.9754H51.3081C52.4528 24.5463 54.8871 26.2601 58.0932 26.2601C62.7901 26.2601 65.5487 23.5427 65.5487 19.0868V7.35917H62.964V8.92592ZM58.1428 18.9391C55.3836 18.9391 53.3958 16.5884 53.3958 14.1406C53.3958 11.5698 55.4338 9.31788 58.1673 9.31788C59.7578 9.31788 62.964 10.3456 62.964 14.1653C62.964 15.9033 61.5228 18.9391 58.1428 18.9391Z" fill="black"/>
<path d="M71.7376 7.35917V2.80548H69.1529V7.35917H67.2893V9.68515H69.1529V20.922H71.7376V9.68515H73.9997V7.35917H71.7376Z" fill="black"/>
<path d="M40.7247 8.76261C39.3687 7.6179 37.6413 6.98933 35.8555 6.99074C31.5811 6.99074 28.4246 10.3444 28.4246 14.0412C28.4246 17.47 31.2328 21.2623 35.8555 21.2623C40.5284 21.2623 43.287 17.3964 43.287 14.0895C43.287 14.0825 43.287 14.0755 43.287 14.0685H43.2919V2.7984H40.7247V8.76261ZM35.8555 18.939C32.9726 18.939 31.0093 16.5642 31.0093 14.1158C31.0093 11.6921 32.9481 9.31779 35.8555 9.31779C38.7629 9.31779 40.7023 11.6921 40.7023 14.0916C40.7023 16.6624 38.6392 18.939 35.8555 18.939Z" fill="black"/>
<path d="M12.3154 15.1457C12.9318 15.1457 13.5375 14.9878 14.0733 14.6877C14.3279 14.5424 14.5393 14.3337 14.6862 14.0825C14.8331 13.8314 14.9105 13.5466 14.9105 13.2568C14.9105 12.9669 14.8331 12.6821 14.6862 12.431C14.5393 12.1798 14.3279 11.9712 14.0733 11.8258L12.2097 10.7692L7.91943 13.1907L10.5434 14.6823C11.0823 14.988 11.6936 15.1479 12.3154 15.1457ZM12.2097 12.4363L13.3369 13.0806C13.368 13.0987 13.3938 13.1243 13.4118 13.1551C13.4298 13.1859 13.4394 13.2207 13.4397 13.2563C13.44 13.2918 13.4309 13.3268 13.4134 13.3578C13.3958 13.3889 13.3704 13.4149 13.3396 13.4334C13.0257 13.6109 12.6699 13.7039 12.3079 13.7029C11.9459 13.702 11.5906 13.6072 11.2776 13.428L10.8677 13.1961L12.2097 12.4363Z" fill="black"/>
<path d="M12.2576 0L0 6.87269V20.2787L12.232 27L23.7586 20.2084V6.85121L12.2576 0ZM12.2096 25.3275L1.46842 19.4315V13.3389L12.2063 7.31995L18.2174 10.9759L16.6083 11.8887C16.4398 11.9849 16.3168 12.143 16.2663 12.3284C16.2158 12.5138 16.242 12.7113 16.3391 12.8777C16.4379 13.0424 16.5981 13.1625 16.7855 13.2127C16.9729 13.2628 17.1727 13.2389 17.3426 13.1462L21.0796 11.0156L12.2347 5.63775L1.46842 11.6734V7.71244L12.2347 1.6779L22.2902 7.66466V13.6917L12.3121 19.5727L5.75323 16.0241L7.04396 15.2896C7.21281 15.1937 7.33607 15.0356 7.38661 14.8502C7.43716 14.6648 7.41086 14.4672 7.3135 14.3008C7.21614 14.1345 7.05569 14.0131 6.86745 13.9633C6.67921 13.9135 6.4786 13.9394 6.30975 14.0353L2.75915 16.0542L12.341 21.2409L22.2902 15.3787V19.389L12.2096 25.3275Z" fill="black"/>
</svg>
