<svg id="steam_full" xmlns="http://www.w3.org/2000/svg" width="94.316" height="11.204" viewBox="0 0 94.316 11.204">
  <path id="Path_348" data-name="Path 348" d="M74.911,18.617a4.53,4.53,0,0,1-2.873.871,6.791,6.791,0,0,1-2.216-.326,4.467,4.467,0,0,1-1.716-1.093l1.363-1.359a2.782,2.782,0,0,0,1.141.7,4.682,4.682,0,0,0,1.46.215c1.269,0,1.906-.448,1.906-1.337a1.247,1.247,0,0,0-.288-.876,1.687,1.687,0,0,0-1-.416l-.606-.093-.7-.088a3.663,3.663,0,0,1-2.093-.893,2.853,2.853,0,0,1-.773-2.115,3.008,3.008,0,0,1,1.013-2.364,3.979,3.979,0,0,1,2.743-.9,5.827,5.827,0,0,1,1.963.295,4.1,4.1,0,0,1,1.512.961l-1.33,1.315a2.35,2.35,0,0,0-1.005-.588,4.551,4.551,0,0,0-1.2-.152,1.783,1.783,0,0,0-1.233.385,1.246,1.246,0,0,0-.432.973,1.054,1.054,0,0,0,.332.76,1.664,1.664,0,0,0,.985.432l.649.089.623.092a5.479,5.479,0,0,1,1.216.3,2.523,2.523,0,0,1,.84.53,2.992,2.992,0,0,1,.832,2.287A2.882,2.882,0,0,1,74.911,18.617Zm9.03-8.131v8.9H81.834v-8.9H79.02V8.617h7.735v1.87Zm7.245,8.9V8.616h7.1v1.87H93.3v2.542h4.25V14.9H93.3v2.622h4.99v1.87Zm18,0-.633-1.909h-3.829l-.651,1.909h-2.193L105.8,8.616h1.648l3.939,10.773Zm-2.509-7.6-1.362,3.913h2.677Zm16.093,7.6V13.113L120.729,17.2h-1.421l-2.067-4.086v6.276h-2.106V8.616h2.08l2.8,5.824,2.791-5.824h2.08V19.389Zm6.681-11.1a1.415,1.415,0,1,1-1.4,1.414A1.4,1.4,0,0,1,129.451,8.284Zm0,.222a1.2,1.2,0,1,0,1.137,1.2A1.158,1.158,0,0,0,129.451,8.507Zm-.258,2.014h-.258V8.945a2.91,2.91,0,0,1,.452-.037.873.873,0,0,1,.491.119.386.386,0,0,1,.142.327.4.4,0,0,1-.31.382v.012c.142.025.233.151.258.382a1.278,1.278,0,0,0,.1.391h-.258a1.244,1.244,0,0,1-.116-.4.289.289,0,0,0-.336-.275h-.168v.677Zm0-.874h.181c.207,0,.375-.074.375-.269,0-.138-.1-.275-.375-.275a.92.92,0,0,0-.181.013Z" transform="translate(-36.53 -8.284)"/>
  <path id="Path_349" data-name="Path 349" d="M26.762,5a3.292,3.292,0,0,0-3.289,3.289c0,.015,0,.029,0,.043L21.355,11.4a2.385,2.385,0,0,0-1.014.179,2.356,2.356,0,0,0-.405.214L10.387,7.85a2.4,2.4,0,1,0-1.432,2.723,2.555,2.555,0,0,0,.388-.2l9.57,3.956a2.4,2.4,0,0,0,4.743-.586l3.032-2.163h.075a3.289,3.289,0,0,0,0-6.578M7.329,10.062A1.855,1.855,0,0,1,6.189,8.35a1.828,1.828,0,0,1,.143-.709,1.849,1.849,0,0,1,3.386-.068l-1.1-.453A1.364,1.364,0,0,0,7.574,9.638l1.1.454a1.831,1.831,0,0,1-1.344-.029m15.636,4.453a1.849,1.849,0,0,1-3.377.09l1.071.443a1.364,1.364,0,1,0,1.049-2.518L20.6,12.073a1.851,1.851,0,0,1,2.364,2.442m3.8-4.035a2.191,2.191,0,1,1,2.191-2.192,2.194,2.194,0,0,1-2.191,2.192m0-.549a1.646,1.646,0,1,1,1.647-1.646,1.646,1.646,0,0,1-1.647,1.646" transform="translate(-5.64 -5)"/>
</svg>
