<svg xmlns="http://www.w3.org/2000/svg" width="83.793" height="16.222" viewBox="0 0 83.793 16.222">
  <g id="facebook_full" transform="translate(0 0)">
    <path id="Path_339" data-name="Path 339" d="M16.426,19.5c-.987,0-1.272.438-1.272,1.4v1.6h2.631l-.264,2.586H15.155v7.849H12V25.086H9.87V22.5H12V20.942c0-2.609,1.052-3.987,3.987-3.987a14.938,14.938,0,0,1,1.84.109V19.5Z" transform="translate(-9.87 -16.955)"/>
    <path id="Path_340" data-name="Path 340" d="M15.936,26.035c0-2.916,1.381-5.112,4.275-5.112a3.1,3.1,0,0,1,3,1.82v-1.6H26.24V31.582H23.215V30a3.064,3.064,0,0,1-3,1.8c-2.894,0-4.275-2.193-4.275-5.112Zm3.157.7c0,1.556.569,2.586,2.038,2.586,1.294,0,1.952-.943,1.952-2.433V25.843c0-1.491-.657-2.433-1.952-2.433-1.469,0-2.038,1.03-2.038,2.586Z" transform="translate(-7.802 -15.602)"/>
    <path id="Path_341" data-name="Path 341" d="M29.9,20.926a5.774,5.774,0,0,1,3.025.7l-.7,2.237a4.967,4.967,0,0,0-2.1-.483c-1.71,0-2.454.987-2.454,2.675v.613c0,1.689.745,2.675,2.454,2.675a4.968,4.968,0,0,0,2.1-.483l.7,2.236a5.761,5.761,0,0,1-3.025.7c-3.706,0-5.394-2-5.394-5.2v-.483C24.5,22.922,26.191,20.926,29.9,20.926Z" transform="translate(-4.881 -15.602)"/>
    <path id="Path_342" data-name="Path 342" d="M31.092,26.76v-.92c0-2.96,1.688-4.907,5.131-4.907,3.245,0,4.67,1.973,4.67,4.867v1.666H34.248c.066,1.425.7,2.061,2.454,2.061a8.966,8.966,0,0,0,3.355-.636l.578,2.162a10.166,10.166,0,0,1-4.056.768C32.583,31.821,31.092,29.827,31.092,26.76Zm3.157-1.36h3.815v-.263c0-1.14-.46-2.045-1.84-2.045-1.426,0-1.975.9-1.975,2.3Z" transform="translate(-2.635 -15.599)"/>
    <path id="Path_343" data-name="Path 343" d="M49.769,28.042c0,2.916-1.4,5.112-4.294,5.112a3.229,3.229,0,0,1-3.113-1.8v1.578H39.382V17.255l3.157-.286v6.972a3.151,3.151,0,0,1,2.938-1.666c2.894,0,4.294,2.193,4.294,5.112Zm-3.157-.724c0-1.469-.569-2.565-2.082-2.565-1.294,0-2,.92-2,2.412v1.1c0,1.491.7,2.412,2,2.412,1.513,0,2.082-1.1,2.082-2.565Z" transform="translate(0.191 -16.951)"/>
    <path id="Path_344" data-name="Path 344" d="M47.916,26.626V26.1c0-3,1.71-5.175,5.2-5.175s5.2,2.17,5.2,5.175v.525c0,3-1.71,5.175-5.2,5.175S47.916,29.63,47.916,26.626Zm7.236-.745c0-1.381-.57-2.477-2.045-2.477s-2.04,1.1-2.04,2.477v.965c0,1.381.57,2.477,2.04,2.477s2.045-1.1,2.045-2.477Z" transform="translate(3.101 -15.602)"/>
    <path id="Path_345" data-name="Path 345" d="M56.45,26.626V26.1c0-3,1.71-5.175,5.2-5.175s5.2,2.17,5.2,5.175v.525c0,3-1.71,5.175-5.2,5.175S56.45,29.63,56.45,26.626Zm7.236-.745c0-1.381-.57-2.477-2.04-2.477s-2.039,1.1-2.039,2.477v.965c0,1.381.569,2.477,2.039,2.477s2.04-1.1,2.04-2.477Z" transform="translate(6.01 -15.602)"/>
    <path id="Path_346" data-name="Path 346" d="M68.241,27.472,71.354,22.5h3.354l-3.266,5.152,3.4,5.283H71.486l-3.245-5.112v5.112H65.083V17.255l3.158-.286Z" transform="translate(8.953 -16.951)"/>
  </g>
</svg>
