<svg xmlns="http://www.w3.org/2000/svg" xmlns:xlink="http://www.w3.org/1999/xlink" width="47.024" height="47.024" viewBox="0 0 47.024 47.024">
  <defs>
    <filter id="iconmonstr-tools-4" x="0" y="0" width="47.024" height="47.024" filterUnits="userSpaceOnUse">
      <feOffset dy="3" input="SourceAlpha"/>
      <feGaussianBlur stdDeviation="3" result="blur"/>
      <feFlood flood-opacity="0.161"/>
      <feComposite operator="in" in2="blur"/>
      <feComposite in="SourceGraphic"/>
    </filter>
  </defs>
  <g transform="matrix(1, 0, 0, 1, 0, 0)" filter="url(#iconmonstr-tools-4)">
    <path id="iconmonstr-tools-4-2" data-name="iconmonstr-tools-4" d="M25.052,29.024a4,4,0,0,1-2.808-1.163L9,14.616a1.8,1.8,0,0,0-1.263-.522l-.134,0a7.1,7.1,0,0,1-5.544-2.046A7,7,0,0,1,0,7.073,9.857,9.857,0,0,1,.865,3.108L5.471,7.717a3,3,0,0,0,1.7-1.131,2.534,2.534,0,0,0,.564-1.1L3.107.859A9.807,9.807,0,0,1,7.043,0,7.041,7.041,0,0,1,14.1,7.6a1.8,1.8,0,0,0,.52,1.4L27.861,22.244a3.972,3.972,0,0,1-2.809,6.781ZM7.735,11.679a4.225,4.225,0,0,1,2.97,1.231L23.951,26.153a1.556,1.556,0,0,0,2.657-1.1,1.547,1.547,0,0,0-.457-1.1L12.91,10.708a4.214,4.214,0,0,1-1.22-3.287,4.648,4.648,0,0,0-1.344-3.655A4.6,4.6,0,0,0,8.22,2.557l1.8,1.8A4.056,4.056,0,0,1,9.05,8.105a4.568,4.568,0,0,1-4.692,1.918l-1.8-1.8a4.626,4.626,0,0,0,4.858,3.47l.32-.012Zm2.012,7.107-5.642,5.6a3.926,3.926,0,0,1-.955.675l-.7.365L1.209,28.016l1.007,1.009L4.758,27.73l.364-.7a3.929,3.929,0,0,1,.694-.936l5.642-5.6-1.71-1.711Zm8.647-9.431,5.451-5.441a.522.522,0,1,1,.739.739L19.133,10.1l1.076,1.076L25.66,5.73a.522.522,0,0,1,.739.738L20.947,11.91,22.2,13.166l5.765-5.755a3.621,3.621,0,1,0-5.12-5.122L17.083,8.045l1.311,1.311Zm6.639,15.073a.6.6,0,1,0,.6.6A.6.6,0,0,0,25.034,24.429Z" transform="translate(9 6)" fill="#232323"/>
  </g>
</svg>
