<svg width="29" xmlns="http://www.w3.org/2000/svg" xmlns:xlink="http://www.w3.org/1999/xlink" viewBox="9 6 23.28 23.2">
  <defs>
    <filter id="iconmonstr-tools-4" x="0" y="0" width="41.2" height="41.2" filterUnits="userSpaceOnUse">
      <feOffset dy="3" input="SourceAlpha"/>
      <feGaussianBlur stdDeviation="3" result="blur"/>
      <feFlood flood-opacity="0.161"/>
      <feComposite operator="in" in2="blur"/>
      <feComposite in="SourceGraphic"/>
    </filter>
  </defs>
  <g transform="matrix(1, 0, 0, 1, 0, 0)" filter="url(#iconmonstr-tools-4)">
    <path id="iconmonstr-tools-4-2" data-name="iconmonstr-tools-4" d="M20.025,23.2a3.2,3.2,0,0,1-2.245-.93L7.192,11.683a1.44,1.44,0,0,0-1.009-.418l-.107,0A5.676,5.676,0,0,1,1.644,9.634,5.6,5.6,0,0,1,0,5.654a7.879,7.879,0,0,1,.691-3.17L4.373,6.168a2.4,2.4,0,0,0,1.358-.9,2.025,2.025,0,0,0,.45-.88l-3.7-3.7A7.839,7.839,0,0,1,5.63,0a5.628,5.628,0,0,1,5.639,6.077,1.435,1.435,0,0,0,.416,1.117L22.27,17.78a3.175,3.175,0,0,1-2.246,5.42ZM6.183,9.335a3.377,3.377,0,0,1,2.374.984L19.145,20.905a1.244,1.244,0,0,0,2.124-.88,1.237,1.237,0,0,0-.365-.881L10.319,8.559a3.368,3.368,0,0,1-.975-2.627A3.715,3.715,0,0,0,8.27,3.01a3.677,3.677,0,0,0-1.7-.967l1.44,1.441a3.242,3.242,0,0,1-.777,2.994A3.651,3.651,0,0,1,3.483,8.012L2.044,6.571A3.7,3.7,0,0,0,5.927,9.345Zm1.609,5.681-4.51,4.473a3.138,3.138,0,0,1-.764.539l-.56.292L.967,22.394l.805.806L3.8,22.166l.291-.561a3.141,3.141,0,0,1,.555-.748l4.51-4.473L7.791,15.016ZM14.7,7.478,19.06,3.129a.418.418,0,1,1,.591.591L15.294,8.07l.86.86,4.357-4.35a.417.417,0,0,1,.591.59L16.744,9.52l1,1,4.608-4.6A2.894,2.894,0,1,0,18.263,1.83l-4.608,4.6L14.7,7.478ZM20.01,19.527a.483.483,0,1,0,.483.483A.484.484,0,0,0,20.01,19.527Z" transform="translate(9 6)" fill="#232323"/>
  </g>
</svg>
