<svg xmlns="http://www.w3.org/2000/svg" xmlns:xlink="http://www.w3.org/1999/xlink" width="563" height="151" viewBox="0 0 563 151">
  <defs>
    <linearGradient id="linear-gradient" x1="0.5" x2="0.5" y2="1" gradientUnits="objectBoundingBox">
      <stop offset="0" stop-color="#5b54ef"/>
      <stop offset="0.293" stop-color="#4d46cb"/>
      <stop offset="0.54" stop-color="#fff"/>
      <stop offset="0.774" stop-color="#36318d"/>
      <stop offset="1" stop-color="#2e2a78"/>
    </linearGradient>
    <filter id="Rectangle_780" x="0" y="43" width="108" height="108" filterUnits="userSpaceOnUse">
      <feOffset dy="3" input="SourceAlpha"/>
      <feGaussianBlur stdDeviation="5" result="blur"/>
      <feFlood flood-opacity="0.251"/>
      <feComposite operator="in" in2="blur"/>
      <feComposite in="SourceGraphic"/>
    </filter>
    <linearGradient id="linear-gradient-2" x1="0.5" x2="0.5" y2="1" gradientUnits="objectBoundingBox">
      <stop offset="0" stop-color="#5b54ef"/>
      <stop offset="1" stop-color="#2e2a78"/>
    </linearGradient>
    <filter id="Rectangle_776" x="7" y="50" width="94" height="94" filterUnits="userSpaceOnUse">
      <feOffset dy="3" input="SourceAlpha"/>
      <feGaussianBlur stdDeviation="3" result="blur-2"/>
      <feFlood flood-opacity="0.161"/>
      <feComposite operator="in" in2="blur-2"/>
      <feComposite in="SourceGraphic"/>
    </filter>
    <filter id="Ellipse_3883" x="14" y="56" width="80" height="81" filterUnits="userSpaceOnUse">
      <feOffset dy="3" input="SourceAlpha"/>
      <feGaussianBlur stdDeviation="3" result="blur-3"/>
      <feFlood flood-opacity="0.161"/>
      <feComposite operator="in" in2="blur-3"/>
      <feComposite in="SourceGraphic"/>
    </filter>
    <filter id="Rectangle_780-2" x="114" y="0" width="108" height="108" filterUnits="userSpaceOnUse">
      <feOffset dy="3" input="SourceAlpha"/>
      <feGaussianBlur stdDeviation="5" result="blur-4"/>
      <feFlood flood-opacity="0.251"/>
      <feComposite operator="in" in2="blur-4"/>
      <feComposite in="SourceGraphic"/>
    </filter>
    <filter id="Rectangle_776-2" x="121" y="7" width="94" height="94" filterUnits="userSpaceOnUse">
      <feOffset dy="3" input="SourceAlpha"/>
      <feGaussianBlur stdDeviation="3" result="blur-5"/>
      <feFlood flood-opacity="0.161"/>
      <feComposite operator="in" in2="blur-5"/>
      <feComposite in="SourceGraphic"/>
    </filter>
    <filter id="Ellipse_3883-2" x="128" y="14" width="80" height="80" filterUnits="userSpaceOnUse">
      <feOffset dy="3" input="SourceAlpha"/>
      <feGaussianBlur stdDeviation="3" result="blur-6"/>
      <feFlood flood-opacity="0.161"/>
      <feComposite operator="in" in2="blur-6"/>
      <feComposite in="SourceGraphic"/>
    </filter>
    <filter id="Rectangle_780-3" x="227" y="43" width="109" height="108" filterUnits="userSpaceOnUse">
      <feOffset dy="3" input="SourceAlpha"/>
      <feGaussianBlur stdDeviation="5" result="blur-7"/>
      <feFlood flood-opacity="0.251"/>
      <feComposite operator="in" in2="blur-7"/>
      <feComposite in="SourceGraphic"/>
    </filter>
    <filter id="Rectangle_776-3" x="234" y="50" width="95" height="94" filterUnits="userSpaceOnUse">
      <feOffset dy="3" input="SourceAlpha"/>
      <feGaussianBlur stdDeviation="3" result="blur-8"/>
      <feFlood flood-opacity="0.161"/>
      <feComposite operator="in" in2="blur-8"/>
      <feComposite in="SourceGraphic"/>
    </filter>
    <filter id="Ellipse_3883-3" x="241" y="56" width="81" height="81" filterUnits="userSpaceOnUse">
      <feOffset dy="3" input="SourceAlpha"/>
      <feGaussianBlur stdDeviation="3" result="blur-9"/>
      <feFlood flood-opacity="0.161"/>
      <feComposite operator="in" in2="blur-9"/>
      <feComposite in="SourceGraphic"/>
    </filter>
    <filter id="Rectangle_780-4" x="341" y="0" width="108" height="108" filterUnits="userSpaceOnUse">
      <feOffset dy="3" input="SourceAlpha"/>
      <feGaussianBlur stdDeviation="5" result="blur-10"/>
      <feFlood flood-opacity="0.251"/>
      <feComposite operator="in" in2="blur-10"/>
      <feComposite in="SourceGraphic"/>
    </filter>
    <filter id="Rectangle_776-4" x="348" y="7" width="94" height="94" filterUnits="userSpaceOnUse">
      <feOffset dy="3" input="SourceAlpha"/>
      <feGaussianBlur stdDeviation="3" result="blur-11"/>
      <feFlood flood-opacity="0.161"/>
      <feComposite operator="in" in2="blur-11"/>
      <feComposite in="SourceGraphic"/>
    </filter>
    <filter id="Ellipse_3883-4" x="355" y="14" width="80" height="80" filterUnits="userSpaceOnUse">
      <feOffset dy="3" input="SourceAlpha"/>
      <feGaussianBlur stdDeviation="3" result="blur-12"/>
      <feFlood flood-opacity="0.161"/>
      <feComposite operator="in" in2="blur-12"/>
      <feComposite in="SourceGraphic"/>
    </filter>
    <filter id="Rectangle_780-5" x="455" y="43" width="108" height="108" filterUnits="userSpaceOnUse">
      <feOffset dy="3" input="SourceAlpha"/>
      <feGaussianBlur stdDeviation="5" result="blur-13"/>
      <feFlood flood-opacity="0.251"/>
      <feComposite operator="in" in2="blur-13"/>
      <feComposite in="SourceGraphic"/>
    </filter>
    <filter id="Rectangle_776-5" x="462" y="50" width="94" height="94" filterUnits="userSpaceOnUse">
      <feOffset dy="3" input="SourceAlpha"/>
      <feGaussianBlur stdDeviation="3" result="blur-14"/>
      <feFlood flood-opacity="0.161"/>
      <feComposite operator="in" in2="blur-14"/>
      <feComposite in="SourceGraphic"/>
    </filter>
    <filter id="Ellipse_3883-5" x="469" y="56" width="80" height="81" filterUnits="userSpaceOnUse">
      <feOffset dy="3" input="SourceAlpha"/>
      <feGaussianBlur stdDeviation="3" result="blur-15"/>
      <feFlood flood-opacity="0.161"/>
      <feComposite operator="in" in2="blur-15"/>
      <feComposite in="SourceGraphic"/>
    </filter>
  </defs>
  <g id="Group_1284" data-name="Group 1284" transform="translate(-952 -2577)">
    <g id="Group_1255" data-name="Group 1255" transform="translate(967 2631.532)">
      <g transform="matrix(1, 0, 0, 1, -15, -54.53)" filter="url(#Rectangle_780)">
        <rect id="Rectangle_780-6" data-name="Rectangle 780" width="78" height="78" rx="13" transform="translate(15 55)" fill="url(#linear-gradient)"/>
      </g>
      <g transform="matrix(1, 0, 0, 1, -15, -54.53)" filter="url(#Rectangle_776)">
        <rect id="Rectangle_776-6" data-name="Rectangle 776" width="76" height="76" rx="13" transform="translate(16 56)" fill="url(#linear-gradient-2)"/>
      </g>
      <g transform="matrix(1, 0, 0, 1, -15, -54.53)" filter="url(#Ellipse_3883)">
        <ellipse id="Ellipse_3883-6" data-name="Ellipse 3883" cx="31" cy="31.5" rx="31" ry="31.5" transform="translate(23 62)" fill="#ff9478"/>
      </g>
    </g>
    <g id="Group_1256" data-name="Group 1256" transform="translate(1080.72 2588.967)">
      <g transform="matrix(1, 0, 0, 1, -128.72, -11.97)" filter="url(#Rectangle_780-2)">
        <rect id="Rectangle_780-7" data-name="Rectangle 780" width="78" height="78" rx="13" transform="translate(129 12)" fill="url(#linear-gradient)"/>
      </g>
      <g transform="matrix(1, 0, 0, 1, -128.72, -11.97)" filter="url(#Rectangle_776-2)">
        <rect id="Rectangle_776-7" data-name="Rectangle 776" width="76" height="76" rx="13" transform="translate(130 13)" fill="url(#linear-gradient-2)"/>
      </g>
      <g transform="matrix(1, 0, 0, 1, -128.72, -11.97)" filter="url(#Ellipse_3883-2)">
        <circle id="Ellipse_3883-7" data-name="Ellipse 3883" cx="31" cy="31" r="31" transform="translate(137 20)" fill="#ff9478"/>
      </g>
    </g>
    <g id="Group_1257" data-name="Group 1257" transform="translate(1194.44 2631.521)">
      <g transform="matrix(1, 0, 0, 1, -242.44, -54.52)" filter="url(#Rectangle_780-3)">
        <rect id="Rectangle_780-8" data-name="Rectangle 780" width="79" height="78" rx="13" transform="translate(242 55)" fill="url(#linear-gradient)"/>
      </g>
      <g transform="matrix(1, 0, 0, 1, -242.44, -54.52)" filter="url(#Rectangle_776-3)">
        <rect id="Rectangle_776-8" data-name="Rectangle 776" width="77" height="76" rx="13" transform="translate(243 56)" fill="url(#linear-gradient-2)"/>
      </g>
      <g transform="matrix(1, 0, 0, 1, -242.44, -54.52)" filter="url(#Ellipse_3883-3)">
        <circle id="Ellipse_3883-8" data-name="Ellipse 3883" cx="31.5" cy="31.5" r="31.5" transform="translate(250 62)" fill="#ff9478"/>
      </g>
    </g>
    <g id="Group_1258" data-name="Group 1258" transform="translate(1308.16 2589)">
      <g transform="matrix(1, 0, 0, 1, -356.16, -12)" filter="url(#Rectangle_780-4)">
        <rect id="Rectangle_780-9" data-name="Rectangle 780" width="78" height="78" rx="13" transform="translate(356 12)" fill="url(#linear-gradient)"/>
      </g>
      <g transform="matrix(1, 0, 0, 1, -356.16, -12)" filter="url(#Rectangle_776-4)">
        <rect id="Rectangle_776-9" data-name="Rectangle 776" width="76" height="76" rx="13" transform="translate(357 13)" fill="url(#linear-gradient-2)"/>
      </g>
      <g transform="matrix(1, 0, 0, 1, -356.16, -12)" filter="url(#Ellipse_3883-4)">
        <circle id="Ellipse_3883-9" data-name="Ellipse 3883" cx="31" cy="31" r="31" transform="translate(364 20)" fill="#ff9478"/>
      </g>
    </g>
    <g id="Group_1259" data-name="Group 1259" transform="translate(1421.879 2631.555)">
      <g transform="matrix(1, 0, 0, 1, -469.88, -54.55)" filter="url(#Rectangle_780-5)">
        <rect id="Rectangle_780-10" data-name="Rectangle 780" width="78" height="78" rx="13" transform="translate(470 55)" fill="url(#linear-gradient)"/>
      </g>
      <g transform="matrix(1, 0, 0, 1, -469.88, -54.55)" filter="url(#Rectangle_776-5)">
        <rect id="Rectangle_776-10" data-name="Rectangle 776" width="76" height="76" rx="13" transform="translate(471 56)" fill="url(#linear-gradient-2)"/>
      </g>
      <g transform="matrix(1, 0, 0, 1, -469.88, -54.55)" filter="url(#Ellipse_3883-5)">
        <ellipse id="Ellipse_3883-10" data-name="Ellipse 3883" cx="31" cy="31.5" rx="31" ry="31.5" transform="translate(478 62)" fill="#ff9478"/>
      </g>
    </g>
    <path id="iconmonstr-linkedin-1" d="M6.833,4.43A3.4,3.4,0,1,1,3.43,1,3.416,3.416,0,0,1,6.833,4.43ZM6.86,10.6H0V32.557H6.86Zm10.952,0H11V32.557h6.818V21.033c0-6.407,8.272-6.932,8.272,0V32.557h6.844v-13.9c0-10.812-12.241-10.418-15.117-5.1V10.6Z" transform="translate(1103.315 2608.282)" fill="#fff"/>
    <path id="iconmonstr-twitter-1_1_" data-name="iconmonstr-twitter-1 (1)" d="M32.929,5.416a13.488,13.488,0,0,1-3.88,1.063,6.767,6.767,0,0,0,2.97-3.737,13.533,13.533,0,0,1-4.29,1.64,6.76,6.76,0,0,0-11.513,6.161A19.179,19.179,0,0,1,2.293,3.484a6.765,6.765,0,0,0,2.09,9.02,6.727,6.727,0,0,1-3.058-.845,6.761,6.761,0,0,0,5.418,6.709,6.772,6.772,0,0,1-3.051.115A6.761,6.761,0,0,0,10,23.175a13.584,13.584,0,0,1-10,2.8,19.125,19.125,0,0,0,10.356,3.035c12.543,0,19.63-10.594,19.2-20.1a13.754,13.754,0,0,0,3.371-3.5Z" transform="translate(989.596 2655.459)" fill="#fff"/>
    <path id="iconmonstr-instagram-11_1_" data-name="iconmonstr-instagram-11 (1)" d="M16.465,2.968c4.4,0,4.917.016,6.654.1,4.462.2,6.546,2.32,6.749,6.749.08,1.736.095,2.257.095,6.653s-.016,4.917-.095,6.653c-.2,4.425-2.283,6.546-6.749,6.749-1.737.08-2.256.1-6.654.1s-4.917-.016-6.653-.1c-4.473-.2-6.546-2.331-6.749-6.751-.08-1.736-.1-2.256-.1-6.653s.018-4.916.1-6.653c.2-4.428,2.283-6.546,6.749-6.749,1.737-.078,2.257-.095,6.653-.095Zm0-2.968c-4.472,0-5.031.019-6.788.1C3.7.373.375,3.691.1,9.676.019,11.433,0,11.993,0,16.465S.019,21.5.1,23.254c.274,5.979,3.592,9.3,9.577,9.577,1.758.08,2.317.1,6.789.1s5.033-.019,6.789-.1c5.974-.274,9.305-3.592,9.576-9.577.081-1.756.1-2.317.1-6.789s-.019-5.031-.1-6.788C32.562,3.7,29.24.375,23.255.1,21.5.019,20.936,0,16.465,0Zm0,8.01a8.455,8.455,0,1,0,8.455,8.455A8.455,8.455,0,0,0,16.465,8.01Zm0,13.943a5.488,5.488,0,1,1,5.488-5.488A5.488,5.488,0,0,1,16.465,21.953ZM25.254,5.7a1.976,1.976,0,1,0,1.974,1.976A1.977,1.977,0,0,0,25.254,5.7Z" transform="translate(1217.035 2654.117)" fill="#fff"/>
    <path id="iconmonstr-facebook-1_1_" data-name="iconmonstr-facebook-1 (1)" d="M10.116,10.976H6v5.488h4.116V32.929h6.86V16.465h5l.491-5.488H16.976V8.689c0-1.31.263-1.829,1.53-1.829h3.958V0H17.24c-4.934,0-7.124,2.172-7.124,6.332Z" transform="translate(1332.988 2611.596)" fill="#fff"/>
    <path id="iconmonstr-email-4" d="M0,3V27.7H32.929V3ZM29.524,5.744,16.465,16.327,3.405,5.744H29.524ZM2.744,24.953V8.739L16.465,19.858,30.185,8.739V24.953Z" transform="translate(1444.475 2655.267)" fill="#fff"/>
  </g>
</svg>
