<svg xmlns="http://www.w3.org/2000/svg" width="20" height="16.253" viewBox="0 0 20 16.253">
  <path id="iconmonstr-twitter-1_1_" data-name="iconmonstr-twitter-1 (1)" d="M20,4.172a8.192,8.192,0,0,1-2.357.646,4.11,4.11,0,0,0,1.8-2.27,8.22,8.22,0,0,1-2.606,1A4.106,4.106,0,0,0,9.849,7.285,11.648,11.648,0,0,1,1.393,3,4.109,4.109,0,0,0,2.662,8.477,4.086,4.086,0,0,1,.8,7.964,4.106,4.106,0,0,0,4.1,12.039a4.113,4.113,0,0,1-1.853.07,4.106,4.106,0,0,0,3.833,2.849A8.25,8.25,0,0,1,0,16.658,11.616,11.616,0,0,0,6.29,18.5,11.6,11.6,0,0,0,17.953,6.3,8.354,8.354,0,0,0,20,4.172Z" transform="translate(0 -2.248)" fill="#1da1f2"/>
</svg>
