<svg xmlns="http://www.w3.org/2000/svg" width="29" height="29" viewBox="0 0 29 29">
  <path id="iconmonstr-user-2_1_" data-name="iconmonstr-user-2 (1)" d="M25.16,21.866c-4.155-.959-8.025-1.8-6.15-5.338C24.712,5.759,20.521,0,14.5,0,8.359,0,4.271,5.98,9.99,16.528c1.931,3.559-2.084,4.4-6.15,5.338C.24,22.7,0,24.455,0,27.5L.006,29H2.417c0-3.787-.151-4.29,2.221-4.837,3.445-.794,6.7-1.544,7.884-4.176a5.007,5.007,0,0,0-.408-4.61C9.627,10.787,9,6.811,10.394,4.471c1.636-2.749,6.556-2.736,8.177-.041,1.39,2.309.772,6.306-1.7,10.967a5.04,5.04,0,0,0-.375,4.609c1.2,2.618,4.479,3.376,7.956,4.178,2.27.527,2.127,1.066,2.127,4.816h2.411L29,27.5C29,24.455,28.76,22.7,25.16,21.866Z" fill="#232323"/>
</svg>
